# xmcd
#
# Track frame offsets:
#	150
#	10522
#	22580
#	35552
#	46737
#	57220
#	67650
#	79235
#	90382
#	101132
#	113217
#	123475
#	134567
#	145760
#	157782
#	169030
#	181980
#	193930
#	205942
#	219302
#
# Disc length: 3067
#
# Revision: 1
# Processed by: cddbd v1.5.1PL0 Copyright (c) Steve Scherf et al.
# Submitted via: ExactAudioCopy v0.95a5
# Normalized: r0:TDELIM( - ),TSWAP
#
DISCID=010bf914
DTITLE=Various Artist - Love Songs of the Rock 'n' Roll Era
DYEAR=1900
DGENRE=Blues
TTITLE0=The Easybeats - Sad, Lonely And Blue
TTITLE1=Peter and Gordon - A World Without Lovin'
TTITLE2=The Loved Ones - The Loved One
TTITLE3=The Fourmost - Baby I Need Your Lovin'
TTITLE4=Bobby Vee - Rubber Ball
TTITLE5=The Marcels - Blue Moon
TTITLE6=Bobby and Laurie - Hitch Hiker
TTITLE7=Tim Yuro - Hurt
TTITLE8=The Fleetwoods - Come Softly To Me
TTITLE9=Master's Apprentices - Living in a Child's Dream
TTITLE10=Neil Sedaka - Oh! Carol
TTITLE11=The Drifters - Save The Last Dance For Me
TTITLE12=Sandy Posey - Single Girl
TTITLE13=Mark Dinning - Teen Angel
TTITLE14=Johnny Tillotson - Poetry In Motion
TTITLE15=Percy Sledge - When a Man Loves a Woman
TTITLE16=Alan Dale and The Houserockers - Very Young
TTITLE17=The Platters - The Great Pretender
TTITLE18=The Honeycombs - Have I The Right
TTITLE19=M.P.D. Ltd - Little Boy Sad
EXTD=
EXTT0=
EXTT1=
EXTT2=
EXTT3=
EXTT4=
EXTT5=
EXTT6=
EXTT7=
EXTT8=
EXTT9=
EXTT10=
EXTT11=
EXTT12=
EXTT13=
EXTT14=
EXTT15=
EXTT16=
EXTT17=
EXTT18=
EXTT19=
PLAYORDER=
